<?xml version="1.0" standalone="no"?>
<!DOCTYPE svg PUBLIC "-//W3C//DTD SVG 20010904//EN"
 "http://www.w3.org/TR/2001/REC-SVG-20010904/DTD/svg10.dtd">
<svg version="1.0" xmlns="http://www.w3.org/2000/svg"
 width="720.000000pt" height="745.000000pt" viewBox="0 0 720.000000 745.000000"
 preserveAspectRatio="xMidYMid meet">
<metadata>
Created by potrace 1.16, written by Peter Selinger 2001-2019
</metadata>
<g transform="translate(0.000000,745.000000) scale(0.100000,-0.100000)"
fill="#000000" stroke="none">
<path d="M2064 7370 c-112 -24 -222 -111 -275 -218 -27 -55 -34 -82 -37 -148
-9 -177 75 -322 226 -392 61 -28 111 -31 342 -21 85 4 100 1 140 -19 69 -36
134 -106 169 -181 59 -129 83 -251 116 -588 l6 -63 -318 0 c-357 0 -408 -7
-531 -65 -134 -63 -237 -187 -288 -345 -15 -47 -18 -104 -22 -391 l-4 -337
-36 4 c-287 32 -432 63 -549 118 -86 41 -160 107 -193 173 -23 44 -25 57 -21
153 9 276 9 280 -27 352 -42 86 -109 153 -192 192 -60 29 -73 31 -170 31 -99
0 -109 -2 -172 -34 -84 -42 -149 -110 -191 -199 -27 -58 -31 -78 -32 -152 0
-106 24 -161 119 -268 79 -90 95 -131 105 -282 12 -160 13 -1691 1 -1825 -12
-147 -28 -188 -106 -277 -95 -107 -119 -162 -119 -268 1 -74 5 -94 32 -152 68
-144 188 -228 339 -236 176 -9 322 75 392 227 28 60 30 102 21 341 -4 85 -1
100 20 142 54 105 172 187 326 227 100 25 294 51 385 51 l68 0 4 -307 c4 -301
5 -310 31 -388 48 -144 139 -251 272 -316 128 -63 173 -69 554 -69 l334 0 -7
-87 c-15 -191 -61 -408 -117 -555 -36 -92 -102 -171 -175 -208 -45 -23 -58
-25 -154 -21 -272 9 -280 9 -350 -25 -83 -39 -155 -111 -194 -194 -29 -60 -31
-73 -31 -170 0 -98 2 -109 32 -171 41 -82 111 -150 201 -192 58 -27 78 -31
152 -32 106 0 161 24 268 119 96 84 130 96 317 106 209 11 1656 11 1790 0 146
-12 188 -28 277 -106 121 -107 214 -139 334 -114 185 38 312 183 322 366 9
176 -75 322 -227 392 -47 22 -71 26 -151 26 -52 1 -131 -3 -175 -8 -132 -14
-209 22 -286 134 -89 129 -129 305 -152 671 l-5 67 302 5 c336 6 379 12 505
74 99 49 187 136 235 234 57 116 66 187 66 521 l0 291 83 -7 c420 -35 665
-131 747 -293 27 -52 27 -49 19 -318 -4 -117 -3 -122 27 -185 39 -83 106 -150
192 -192 62 -31 73 -33 172 -33 99 0 109 2 172 34 114 57 192 159 218 286 25
119 -6 212 -109 328 -119 133 -111 61 -118 1092 -5 894 0 1085 32 1177 10 28
42 76 81 120 94 107 119 162 119 268 0 75 -4 93 -32 152 -68 145 -188 228
-339 236 -176 9 -322 -75 -392 -226 -28 -61 -30 -103 -21 -342 4 -87 2 -99
-23 -145 -14 -28 -46 -69 -70 -92 -92 -84 -382 -166 -670 -189 l-88 -6 0 291
c0 379 -14 453 -111 592 -49 70 -120 126 -210 169 -114 53 -171 60 -513 60
l-308 0 7 73 c43 455 127 674 292 757 53 27 128 31 298 16 111 -11 174 5 263
64 113 76 166 181 165 330 -1 172 -70 283 -220 357 -69 34 -82 37 -162 38
-107 0 -161 -24 -269 -119 -82 -72 -133 -95 -232 -102 -118 -8 -1762 -11
-1875 -3 -145 10 -188 26 -277 105 -40 36 -96 76 -123 90 -57 27 -155 38 -221
24z m184 -89 c21 -11 70 -45 108 -77 86 -71 145 -98 256 -119 76 -14 196 -15
1030 -12 811 3 951 5 998 18 91 26 123 43 195 108 94 83 143 106 225 105 170
-1 307 -134 318 -307 6 -102 -22 -173 -97 -248 -80 -80 -147 -104 -256 -93
-44 5 -125 8 -180 8 -120 0 -165 -18 -255 -101 -95 -88 -161 -237 -200 -456
-44 -242 -68 -723 -52 -1017 13 -242 20 -257 167 -403 153 -152 256 -314 310
-487 l17 -55 -36 -54 c-20 -29 -36 -57 -36 -62 0 -5 -4 -9 -8 -9 -5 0 -14 25
-21 56 -44 195 -188 428 -358 581 -147 131 -154 178 -130 893 11 316 22 515
32 570 46 261 157 480 296 584 115 86 232 111 394 81 104 -19 136 -16 202 16
76 37 117 139 93 229 -25 95 -97 150 -195 150 -70 0 -100 -13 -204 -89 -102
-74 -164 -98 -289 -112 -63 -6 -436 -9 -1057 -7 l-960 3 -66 23 c-44 15 -93
42 -145 83 -127 98 -177 117 -266 98 -152 -33 -209 -238 -98 -349 62 -62 119
-69 342 -44 177 20 373 -106 469 -300 85 -174 133 -482 159 -1016 10 -201 5
-478 -9 -497 -6 -9 -128 -93 -135 -93 -2 0 3 26 12 58 14 48 17 106 16 367 -3
591 -60 1005 -163 1166 -41 65 -114 132 -180 165 -60 31 -82 32 -336 23 -93
-4 -104 -2 -157 24 -63 31 -115 85 -150 156 -32 64 -33 205 -2 272 73 157 266
239 402 170z m-12 -212 c33 -22 78 -55 101 -74 54 -43 129 -71 227 -84 105
-15 1945 -15 2050 0 112 15 180 42 270 108 103 74 136 91 181 91 68 0 119 -45
125 -110 5 -62 -1 -83 -35 -117 l-36 -36 -82 7 c-45 4 -118 9 -162 12 -227 17
-429 -114 -550 -355 -38 -75 -100 -269 -120 -371 -8 -47 -20 -183 -25 -304 -5
-120 -12 -221 -15 -224 -3 -3 -5 4 -5 15 0 11 -19 58 -41 103 -53 105 -146
202 -241 250 -51 27 -64 38 -56 47 20 24 50 13 97 -36 51 -54 93 -71 178 -71
l52 0 -18 43 c-34 80 -51 171 -51 278 0 143 -17 196 -84 265 -29 30 -47 54
-42 54 6 0 34 -11 62 -24 60 -28 91 -71 101 -141 6 -46 6 -47 37 -41 88 18
142 93 133 182 -5 52 -5 53 28 73 51 30 79 92 72 161 -3 31 -12 71 -21 88
l-16 32 -52 -21 c-84 -33 -173 -50 -319 -59 -76 -6 -159 -15 -186 -20 -46 -11
-48 -10 -67 17 -33 45 -77 83 -97 83 -11 0 -39 -18 -63 -40 l-43 -40 -44 19
c-94 42 -241 46 -359 11 -65 -19 -208 -12 -285 14 -38 14 -71 23 -73 21 -2 -1
-5 -18 -8 -37 -14 -82 41 -213 100 -239 19 -9 24 -21 29 -64 9 -87 55 -135
131 -135 31 0 36 4 42 28 28 127 84 178 206 189 60 6 152 -19 146 -38 -2 -6
-35 -11 -74 -13 -98 -4 -155 -33 -199 -100 -47 -71 -59 -128 -52 -248 7 -118
-3 -179 -43 -241 l-28 -44 52 -6 c113 -13 179 22 241 128 9 15 13 12 27 -18
l17 -36 -53 -30 c-108 -60 -207 -182 -250 -305 -28 -80 -31 -73 -41 89 -9 143
-32 334 -56 450 -52 258 -102 369 -218 485 -84 84 -160 129 -261 155 -65 17
-69 17 -295 -1 -80 -6 -123 10 -159 59 -40 54 -17 160 42 191 15 9 48 15 73
16 39 0 57 -7 105 -41z m1183 -296 c28 -9 68 -31 89 -49 l37 -33 -30 -25 c-37
-31 -44 -31 -97 -3 -36 18 -59 22 -138 22 -80 0 -102 -4 -140 -23 -63 -33
-105 -76 -130 -134 -17 -39 -24 -47 -35 -38 -22 18 -26 55 -11 103 l14 45 -36
7 c-48 9 -77 30 -96 70 -26 55 -22 65 22 52 51 -15 227 -11 287 6 69 21 201
21 264 0z m899 -21 c5 -47 -47 -98 -111 -107 -49 -8 -59 -22 -31 -46 21 -17
44 -63 44 -87 0 -11 -8 -30 -18 -42 l-18 -22 -19 42 c-66 147 -324 195 -495
92 l-45 -27 91 -6 c110 -7 185 -38 238 -100 81 -95 69 -254 -24 -316 -41 -28
-76 -31 -64 -5 4 9 9 53 11 97 4 69 1 86 -19 125 -13 25 -39 55 -58 68 -30 20
-45 23 -105 20 -86 -4 -122 -27 -165 -101 -35 -60 -40 -136 -15 -208 16 -45
16 -45 -27 -69 -9 -6 -28 -14 -43 -20 -23 -9 -28 -6 -45 23 -29 48 -26 62 20
76 47 14 49 23 15 45 -104 68 -82 227 48 358 122 121 252 176 452 189 133 9
286 32 327 49 38 15 53 8 56 -28z m-994 -311 c-33 -81 -38 -136 -20 -196 8
-27 14 -50 12 -52 -9 -9 -75 22 -103 49 -62 60 -62 137 1 205 29 32 62 46 122
52 7 1 2 -23 -12 -58z m450 -101 c101 -120 -19 -355 -231 -455 -165 -77 -188
-91 -234 -137 -176 -176 -145 -474 65 -614 76 -50 130 -63 301 -74 83 -6 179
-17 215 -25 62 -15 230 -76 259 -94 7 -5 17 -32 22 -60 4 -29 11 -61 14 -71 5
-16 -9 -12 -87 25 -130 61 -249 94 -392 106 -199 16 -245 25 -323 64 -146 72
-264 231 -293 394 -27 150 34 326 153 437 61 58 83 71 252 150 99 47 174 118
198 188 21 60 21 89 3 149 l-14 47 33 0 c25 0 40 -8 59 -30z m69 -422 c281
-149 354 -549 143 -782 l-41 -45 -67 15 -67 16 53 49 c66 60 101 117 122 201
33 128 -4 272 -96 372 -43 47 -164 116 -204 116 -17 1 -12 9 29 45 28 25 54
45 59 45 4 0 36 -15 69 -32z m-111 -151 c120 -54 191 -165 192 -297 1 -66 -3
-84 -32 -142 -63 -128 -173 -194 -313 -186 -125 7 -225 72 -280 183 -20 43
-24 64 -24 145 0 83 4 101 27 145 26 51 94 121 139 146 86 46 200 48 291 6z
m-978 -119 c3 -13 6 -39 6 -60 l0 -36 -317 -4 c-300 -4 -322 -5 -384 -27 -86
-30 -156 -84 -197 -151 -61 -103 -72 -177 -72 -517 0 -297 9 -269 -85 -257
l-47 7 5 326 c4 345 8 375 57 477 37 75 123 159 204 199 116 57 163 63 512 64
l312 1 6 -22z m2315 11 c36 -6 102 -28 146 -49 125 -60 204 -150 247 -280 20
-60 22 -91 26 -381 l4 -316 -24 -6 c-12 -4 -42 -7 -65 -7 l-41 0 -4 298 c-4
273 -6 302 -26 362 -41 123 -121 202 -241 242 -61 20 -91 22 -373 26 l-308 4
0 43 c0 80 -22 75 303 75 164 0 319 -5 356 -11z m-4552 -120 c80 -30 162 -112
193 -194 20 -53 21 -69 14 -140 -5 -44 -8 -125 -8 -180 0 -120 18 -165 102
-257 169 -182 558 -255 1317 -246 387 4 388 4 518 127 109 102 179 159 256
211 69 46 222 121 286 140 39 11 43 10 94 -24 29 -20 57 -36 62 -36 5 0 9 -3
9 -7 0 -5 -37 -18 -82 -31 -191 -53 -365 -159 -526 -320 -116 -116 -162 -143
-279 -161 -183 -28 -1059 3 -1273 45 -195 39 -353 118 -471 234 -133 132 -167
244 -134 444 19 120 16 153 -26 221 -37 62 -138 97 -219 75 -95 -25 -150 -97
-150 -195 0 -70 13 -100 89 -204 33 -46 70 -108 81 -137 38 -104 41 -198 38
-1204 l-3 -965 -23 -66 c-15 -44 -42 -93 -83 -145 -98 -127 -117 -177 -98
-266 38 -177 299 -213 383 -53 23 44 28 154 12 290 -15 131 34 254 145 366
140 142 338 201 803 244 262 24 556 36 713 29 l142 -7 45 -70 c45 -69 45 -69
18 -63 -119 25 -183 28 -442 23 -588 -14 -958 -69 -1111 -166 -65 -41 -132
-114 -165 -180 -31 -60 -32 -82 -23 -336 4 -93 2 -104 -24 -157 -31 -63 -85
-115 -156 -150 -37 -18 -63 -23 -136 -23 -78 0 -97 4 -147 28 -108 53 -181
168 -182 287 -1 82 22 131 105 224 34 38 69 88 79 111 45 105 45 109 45 1130
0 890 -1 976 -17 1038 -23 89 -37 113 -108 194 -82 92 -105 141 -104 223 2
224 228 377 441 299z m6426 -13 c107 -52 180 -168 181 -286 1 -82 -21 -129
-109 -229 -70 -80 -97 -137 -115 -243 -8 -44 -10 -357 -7 -1018 3 -822 5 -963
18 -1010 26 -91 43 -123 108 -195 83 -94 106 -143 105 -225 -1 -170 -134 -307
-307 -318 -102 -6 -173 22 -248 97 -80 80 -104 147 -93 256 5 44 8 125 8 180
0 120 -18 165 -101 255 -81 88 -209 148 -408 192 -174 38 -335 49 -765 55
-543 7 -543 7 -704 -164 -43 -46 -104 -103 -135 -127 -139 -107 -380 -216
-419 -188 -9 6 -39 25 -67 41 -31 19 -44 32 -35 35 8 2 49 14 90 26 182 53
338 149 507 312 195 188 195 189 904 165 334 -11 533 -22 589 -32 261 -46 480
-157 584 -296 86 -115 111 -232 81 -394 -19 -104 -16 -136 16 -202 37 -76 139
-117 229 -93 95 25 150 97 150 195 0 70 -13 100 -89 204 -74 102 -98 164 -112
289 -6 63 -9 436 -7 1057 l3 960 23 66 c15 44 42 93 83 145 98 127 117 177 98
266 -33 152 -238 209 -349 98 -62 -62 -68 -108 -44 -345 12 -122 -40 -249
-147 -356 -147 -148 -348 -206 -869 -249 -282 -23 -542 -32 -685 -22 l-110 7
-42 65 c-23 35 -40 66 -38 68 2 2 30 -2 62 -10 131 -30 911 -2 1168 42 288 49
429 130 513 292 23 46 27 65 27 143 0 50 -4 124 -9 165 -18 161 61 289 214
344 68 25 183 17 253 -18z m-4366 -52 c26 -7 47 -54 38 -84 -10 -31 -45 -60
-74 -60 -38 0 -85 32 -111 76 -13 22 -25 41 -27 43 -7 9 -76 -65 -89 -96 -8
-18 -14 -51 -14 -73 0 -22 -4 -40 -9 -40 -17 0 -21 16 -12 46 19 70 -37 144
-110 144 -82 0 -133 -54 -132 -140 1 -113 82 -205 211 -240 35 -9 42 -15 37
-28 -4 -9 -10 -38 -12 -63 -9 -82 54 -166 162 -215 80 -36 78 -37 76 37 -3 96
21 139 151 273 l109 111 -6 -80 c-13 -160 -57 -271 -145 -368 -73 -80 -153
-117 -264 -124 l-85 -6 15 49 c35 112 -2 225 -112 344 -90 97 -121 139 -129
173 -4 15 -11 27 -16 27 -19 0 -83 -67 -100 -105 -23 -50 -23 -79 -1 -129 17
-38 17 -41 -2 -79 -15 -31 -17 -47 -10 -75 9 -36 10 -37 61 -38 71 -1 103 -23
103 -70 0 -26 -8 -43 -29 -65 -27 -27 -35 -29 -106 -29 l-76 0 3 323 3 322 26
55 c47 101 133 161 255 179 68 10 388 14 421 5z m183 -81 c0 -64 -6 -99 -19
-129 -11 -23 -71 -96 -134 -162 -113 -119 -167 -199 -167 -249 0 -13 -5 -23
-11 -23 -19 0 -77 65 -85 94 -10 42 22 101 89 161 l59 54 -39 25 c-61 40 -98
117 -74 154 6 11 19 6 55 -22 41 -31 55 -36 100 -36 98 0 162 70 152 168 l-5
52 40 0 39 0 0 -87z m1704 47 c-15 -96 55 -180 149 -180 53 0 79 10 119 47 31
30 48 23 48 -19 0 -42 -32 -90 -81 -122 l-40 -27 66 -62 c57 -53 67 -68 72
-104 7 -53 -10 -97 -49 -124 -16 -12 -30 -20 -31 -18 -2 2 -8 25 -15 52 -17
66 -48 113 -152 224 -119 127 -140 170 -140 285 l0 88 30 0 c30 0 30 -1 24
-40z m521 30 c88 -13 184 -59 220 -105 70 -92 85 -183 85 -511 l0 -234 -84 0
c-79 0 -86 2 -105 26 -52 66 8 136 102 119 30 -6 35 -4 40 17 11 38 8 68 -9
103 -14 30 -14 36 0 64 35 67 9 165 -59 217 -20 15 -37 25 -39 23 -2 -2 -10
-18 -19 -35 -9 -17 -54 -73 -102 -125 -47 -52 -98 -119 -113 -149 -33 -68 -42
-168 -19 -223 l16 -37 -36 0 c-109 0 -251 65 -344 159 -81 81 -98 126 -106
270 l-6 105 65 -70 c151 -159 173 -201 166 -309 -5 -76 -6 -75 95 -22 106 55
161 149 138 233 -15 54 -16 52 31 65 132 35 210 124 212 239 1 89 -48 140
-135 140 -34 0 -47 -6 -76 -35 -33 -33 -35 -38 -31 -92 2 -39 -1 -58 -9 -60
-9 -3 -13 9 -13 44 0 32 -7 60 -23 85 -20 34 -74 85 -81 77 -1 -2 -13 -21 -25
-41 -45 -75 -117 -100 -159 -55 -35 37 -38 72 -8 101 25 26 26 26 193 26 92 0
200 -5 238 -10z m1887 -106 c36 -18 58 -62 58 -114 0 -51 -12 -74 -89 -173
-69 -90 -95 -151 -110 -261 -15 -105 -15 -1945 0 -2050 15 -112 42 -180 108
-270 74 -103 91 -136 91 -181 0 -68 -45 -119 -110 -125 -62 -5 -83 1 -117 35
l-36 36 7 82 c18 227 18 242 2 311 -42 177 -170 319 -373 413 -195 90 -341
120 -646 133 -121 5 -222 12 -225 15 -3 3 4 5 15 5 11 0 58 19 103 41 105 53
202 146 250 241 27 51 38 64 47 56 24 -20 13 -50 -36 -97 -54 -51 -71 -93 -71
-178 l0 -52 43 18 c80 34 171 51 278 51 143 0 196 17 265 84 30 29 54 47 54
42 0 -6 -11 -34 -24 -62 -28 -60 -71 -91 -141 -101 -46 -6 -47 -6 -41 -37 18
-88 93 -142 182 -133 52 5 53 5 73 -28 30 -51 92 -79 161 -72 31 3 71 12 88
21 l32 16 -21 52 c-34 86 -49 166 -59 323 -6 83 -15 168 -21 189 -10 38 -9 41
18 60 45 33 83 77 83 97 0 11 -18 39 -40 63 l-40 43 19 44 c42 94 46 241 11
359 -19 65 -12 208 14 285 14 39 23 71 21 73 -1 2 -18 5 -37 8 -82 14 -213
-41 -239 -100 -9 -19 -21 -24 -65 -29 -63 -7 -105 -33 -128 -81 -32 -68 -24
-80 70 -105 83 -22 132 -89 141 -193 6 -60 -19 -152 -38 -146 -6 2 -11 36 -13
76 -8 182 -126 263 -361 248 -112 -7 -170 4 -235 48 l-38 25 -6 -52 c-13 -113
23 -180 129 -242 15 -9 12 -13 -18 -27 l-36 -17 -30 53 c-61 108 -182 207
-306 251 -66 23 -67 24 -34 29 19 3 118 12 221 21 471 40 680 106 838 264 128
129 178 255 165 416 -15 170 -12 231 11 262 44 60 114 74 186 37z m-6368 -35
c28 -31 28 -34 22 -113 -18 -225 -18 -241 -2 -310 50 -211 214 -364 498 -464
142 -50 278 -72 521 -82 121 -5 222 -12 225 -15 3 -3 -4 -5 -15 -5 -11 0 -58
-19 -103 -41 -105 -53 -202 -146 -250 -241 -27 -51 -38 -64 -47 -56 -24 20
-13 50 36 97 54 51 71 93 71 178 l0 52 -42 -18 c-83 -35 -177 -52 -283 -52
-139 1 -192 -16 -261 -83 -30 -29 -54 -47 -54 -42 0 6 11 34 24 62 28 60 71
91 141 101 46 6 47 6 41 37 -18 88 -93 142 -182 133 -52 -5 -53 -5 -73 28 -30
51 -92 79 -161 72 -31 -3 -71 -12 -88 -21 l-32 -16 21 -52 c33 -84 50 -173 59
-319 6 -76 15 -159 20 -186 11 -46 10 -48 -17 -67 -45 -33 -83 -77 -83 -97 0
-11 18 -39 40 -63 l40 -43 -19 -44 c-42 -94 -46 -241 -11 -359 19 -65 12 -208
-14 -285 -14 -38 -23 -71 -21 -73 1 -2 18 -5 37 -8 82 -14 213 41 239 100 9
19 21 24 65 29 63 7 105 33 128 81 32 68 24 80 -70 105 -83 22 -132 89 -141
193 -6 60 19 152 38 146 6 -2 11 -35 13 -74 4 -98 33 -155 100 -199 74 -49
122 -59 252 -51 123 7 178 -4 244 -48 l38 -25 6 52 c13 113 -23 180 -129 242
-15 9 -12 13 18 27 l36 17 30 -53 c61 -108 182 -207 306 -251 66 -23 67 -24
34 -29 -19 -3 -118 -12 -221 -21 -471 -40 -680 -106 -838 -264 -84 -84 -129
-160 -155 -261 -17 -65 -17 -69 1 -295 4 -56 1 -77 -13 -104 -26 -50 -66 -76
-116 -75 -87 2 -137 53 -137 137 0 46 28 95 115 204 43 54 71 129 84 227 15
105 15 1945 0 2050 -15 112 -42 180 -108 270 -32 45 -66 95 -75 113 -31 61
-13 148 37 174 64 35 138 26 181 -22z m1694 19 c19 -19 14 -50 -13 -78 l-25
-26 21 -23 c28 -30 79 -51 122 -51 21 0 41 -7 51 -19 28 -30 11 -44 -45 -38
-112 13 -187 76 -197 162 -3 35 0 50 13 65 20 22 55 26 73 8z m2826 -4 c35
-35 12 -131 -43 -177 -51 -43 -180 -73 -196 -46 -12 18 26 49 61 49 46 0 110
27 128 55 14 21 13 24 -10 46 -40 37 -27 89 22 89 13 0 30 -7 38 -16z m-1899
-210 c41 -57 44 -65 28 -71 -10 -3 -42 -17 -72 -30 -30 -13 -55 -22 -57 -21
-1 2 0 70 3 152 l6 148 23 -57 c13 -31 44 -85 69 -121z m1032 -111 c-3 -3
-114 35 -125 43 -2 1 12 23 31 48 33 43 84 140 89 168 1 7 4 -47 5 -121 2 -73
2 -135 0 -138z m1023 -4 c0 -14 -15 -45 -33 -70 l-34 -43 29 -24 c15 -13 28
-27 28 -31 0 -4 -20 -12 -45 -19 -24 -6 -59 -25 -77 -41 -30 -27 -33 -34 -33
-88 0 -32 4 -66 9 -75 16 -34 -22 -19 -51 19 -24 31 -28 46 -28 97 0 80 26
129 130 245 70 79 82 88 93 73 6 -9 12 -28 12 -43z m-2998 -162 c37 -55 51
-125 38 -184 -16 -68 -26 -83 -61 -83 -26 0 -30 3 -23 18 4 9 10 42 12 73 3
51 1 60 -27 91 -21 25 -47 40 -83 50 l-53 15 32 29 32 29 -30 39 c-27 37 -40
102 -23 119 8 8 150 -142 186 -196z m1643 -6 c158 -33 332 -113 456 -212 l42
-33 -29 -9 c-16 -5 -36 -9 -44 -9 -18 -2 -45 -27 -36 -35 10 -10 -25 -43 -45
-43 -10 0 -23 9 -29 20 -11 20 -50 28 -50 11 0 -16 52 -51 75 -51 12 0 33 8
46 19 13 10 30 16 38 13 10 -3 12 0 8 12 -4 10 -1 16 9 16 8 0 13 4 9 9 -8 14
23 29 50 23 13 -2 50 -32 83 -66 206 -216 316 -543 283 -846 -6 -60 -23 -149
-37 -197 -27 -95 -99 -250 -137 -297 l-24 -30 -17 51 c-17 51 -17 52 10 104
35 70 53 178 54 318 0 151 -20 342 -37 348 -18 7 -16 29 8 98 28 80 32 261 6
280 -10 7 -17 17 -17 23 0 5 -12 13 -26 16 -28 7 -71 -14 -88 -43 -15 -25 -25
14 -25 105 -1 55 -5 85 -14 93 -21 16 -26 4 -15 -35 5 -19 8 -53 6 -76 l-3
-42 -38 62 c-36 58 -39 61 -62 50 -27 -12 -31 -23 -15 -33 6 -3 13 1 16 10 5
12 18 -1 50 -52 24 -37 46 -80 49 -95 6 -24 10 -27 31 -22 29 7 30 -5 13 -103
-12 -66 -22 -74 -33 -23 -3 19 -14 34 -28 39 -31 11 -51 3 -42 -18 4 -9 13
-42 20 -73 8 -32 25 -79 39 -104 27 -50 31 -70 15 -76 -5 -1 -14 -50 -19 -108
-6 -58 -18 -145 -27 -193 -16 -84 -17 -87 -34 -72 -10 9 -42 61 -70 115 -60
115 -113 177 -158 186 -17 4 -37 13 -43 20 -6 8 -15 14 -20 14 -4 0 -20 5 -36
11 -25 9 -26 12 -11 20 33 18 110 140 135 211 22 63 25 85 21 178 -3 102 -5
111 -46 192 -85 174 -252 278 -442 278 -125 0 -244 -46 -333 -128 -61 -58
-120 -145 -137 -206 -7 -25 -14 -46 -16 -46 -2 0 -13 9 -24 20 -11 11 -31 20
-44 20 -20 0 -24 -6 -30 -40 -6 -38 -18 -51 -30 -31 -3 5 -15 7 -27 4 -18 -5
-19 -2 -13 23 12 44 10 67 -3 71 -7 3 -13 -1 -13 -9 0 -11 -60 -54 -64 -46
-15 25 -24 61 -20 73 4 10 0 15 -15 15 -13 0 -21 -6 -21 -17 0 -10 -11 -54
-25 -98 -14 -44 -25 -81 -25 -82 0 -2 6 -3 14 -3 9 0 22 27 36 72 16 51 24 68
31 57 10 -17 12 -53 2 -63 -15 -15 -14 -56 2 -56 8 0 15 7 15 15 0 8 4 15 9
15 5 0 7 8 5 18 -5 19 38 72 44 54 2 -6 -6 -40 -16 -76 -13 -43 -16 -68 -10
-72 14 -9 26 12 33 58 7 38 18 48 30 28 4 -6 15 -8 25 -5 26 8 29 -4 15 -57
-6 -27 -11 -48 -9 -48 1 0 9 -3 18 -6 12 -5 16 0 16 19 0 55 12 87 33 87 11 0
28 6 36 14 14 13 16 7 17 -67 1 -125 46 -239 133 -339 l40 -45 -23 -11 c-14
-6 -44 -16 -68 -22 -70 -19 -121 -77 -195 -225 l-66 -130 -24 80 c-31 103 -46
288 -27 327 8 15 18 60 23 100 5 40 12 83 16 94 5 15 2 23 -9 27 -27 11 -45
-3 -57 -44 -7 -21 -16 -39 -20 -39 -11 0 -37 75 -54 153 -14 69 -33 96 -67 97
-10 0 -18 -4 -18 -10 0 -5 -7 -10 -15 -10 -8 0 -15 -9 -15 -19 0 -10 -7 -21
-15 -25 -10 -4 -15 -19 -15 -48 0 -58 34 -217 54 -257 13 -25 15 -39 7 -64
-15 -48 -43 -320 -43 -423 0 -117 29 -218 78 -274 14 -16 9 -60 -7 -60 -11 0
-53 66 -96 150 -99 196 -137 452 -98 673 18 105 70 254 120 342 38 69 139 208
173 238 20 18 21 18 41 -2 12 -12 31 -21 44 -21 13 0 28 -5 34 -11 7 -7 13 -7
17 0 4 5 14 7 23 4 13 -5 15 -2 10 11 -12 31 46 16 61 -16 18 -38 46 -39 31
-1 -13 34 -26 43 -66 43 -17 0 -33 4 -35 10 -1 5 -13 7 -25 4 -13 -4 -21 -10
-18 -14 3 -4 -3 -11 -12 -15 -26 -9 -56 30 -42 56 17 34 120 108 219 158 175
89 296 119 495 120 101 0 165 -4 230 -18z m-110 -85 c165 -44 297 -176 340
-341 40 -154 -9 -336 -119 -444 -42 -41 -43 -42 -64 -24 -15 12 -24 34 -28 66
-6 41 -4 50 14 63 11 8 26 31 33 51 16 50 6 225 -17 284 -56 145 -181 217
-332 191 -117 -20 -196 -89 -229 -201 -29 -100 0 -304 47 -333 16 -10 16 -15
2 -70 -26 -102 -67 -93 -149 31 -74 111 -101 255 -72 380 36 157 176 304 329
345 70 19 180 20 245 2z m-17 -215 c72 -37 128 -117 147 -210 l7 -33 -31 23
c-33 24 -42 45 -15 35 14 -5 16 -1 10 25 -16 83 -104 159 -183 159 -30 0 -43
-4 -43 -14 0 -8 -16 -16 -39 -20 -42 -6 -94 -44 -112 -80 -9 -16 -3 -13 22 10
19 18 45 38 59 45 30 16 80 20 80 7 0 -5 -13 -8 -30 -6 -16 2 -29 -1 -29 -7 0
-5 11 -10 24 -10 14 0 25 -3 25 -7 1 -59 4 -56 -58 -51 -51 5 -64 2 -101 -21
-32 -20 -40 -30 -32 -40 8 -9 2 -22 -20 -47 l-30 -34 5 57 c8 103 59 182 141
219 55 25 154 25 203 0z m2889 -38 c-16 -56 -12 -218 7 -289 35 -132 14 -279
-50 -352 l-33 -37 -25 30 c-31 37 -31 38 -3 94 18 38 22 62 22 141 0 83 -4
101 -27 145 -33 63 -70 98 -131 125 -38 17 -46 24 -37 35 18 22 55 26 103 11
l46 -14 6 37 c3 20 14 46 23 58 19 25 69 53 94 53 14 0 15 -5 5 -37z m-5892
-46 c24 -24 35 -46 40 -80 8 -49 22 -59 46 -31 17 21 63 44 87 44 11 0 30 -8
42 -18 l22 -18 -42 -19 c-147 -66 -195 -324 -92 -495 l27 -45 6 91 c7 110 38
185 100 238 95 81 254 69 317 -24 27 -41 30 -76 5 -65 -10 4 -54 10 -98 12
-70 4 -85 2 -124 -19 -128 -68 -121 -252 12 -328 60 -35 136 -40 208 -15 45
16 45 16 69 -27 6 -9 14 -28 20 -43 9 -23 6 -28 -23 -45 -48 -29 -62 -26 -76
20 -14 47 -23 49 -45 15 -46 -70 -146 -85 -243 -38 -144 71 -285 287 -299 458
-2 28 -8 104 -14 170 -5 67 -19 156 -30 199 -11 43 -17 82 -14 87 13 22 67 8
99 -24z m3073 -81 c16 -16 16 -17 0 -10 -22 8 -24 -17 -4 -49 7 -12 16 -53 20
-91 5 -64 3 -74 -30 -145 -32 -70 -35 -81 -28 -139 6 -57 4 -65 -17 -88 -26
-28 -89 -48 -122 -39 -52 15 -77 29 -92 51 -14 22 -14 29 -1 74 l15 50 -42 82
c-42 81 -42 84 -35 153 4 38 5 71 4 73 -2 2 -17 -8 -32 -22 -16 -14 -23 -26
-16 -26 18 0 15 -63 -5 -105 l-17 -36 31 -24 c36 -29 49 -60 57 -139 10 -95
64 -146 156 -146 28 0 39 -4 34 -11 -4 -7 -29 -10 -65 -7 -45 3 -65 10 -85 29
-36 34 -54 72 -54 116 0 63 -19 111 -51 136 -33 24 -35 49 -8 114 12 29 11 34
-4 46 -17 12 -16 15 12 54 16 22 35 44 41 48 8 5 8 10 0 20 -9 11 -6 18 18 32
42 26 294 25 320 -1z m-1218 -93 c-75 -153 -106 -277 -119 -478 -11 -154 -31
-220 -97 -317 -80 -118 -223 -209 -361 -230 -149 -23 -321 39 -430 155 -57 61
-70 83 -149 252 -47 99 -118 174 -188 198 -60 21 -89 21 -149 3 l-47 -14 0 33
c0 68 98 110 198 85 120 -30 221 -131 312 -315 92 -184 179 -260 328 -286 189
-34 393 92 448 276 8 27 19 115 24 195 6 93 18 180 34 241 23 93 71 225 86
242 7 8 99 31 136 36 6 0 -6 -34 -26 -76z m1936 -50 c-3 -18 -1 -33 5 -33 5 0
9 28 10 63 0 52 2 58 11 37 14 -35 4 -177 -17 -225 -9 -22 -20 -60 -23 -85
l-7 -45 -46 -3 c-46 -3 -47 -2 -52 30 -2 18 -14 56 -25 83 -37 89 -51 145 -36
145 7 0 16 -15 20 -32 9 -42 31 -76 53 -83 10 -3 23 -15 29 -28 8 -17 11 -18
11 -5 1 10 -8 26 -20 37 -18 17 -19 23 -10 57 6 22 11 75 12 119 0 64 2 75 10
55 6 -14 9 -51 7 -82 -3 -50 -1 -57 17 -61 11 -2 29 -8 40 -12 17 -6 18 -5 5
7 -13 10 -15 30 -11 98 4 81 5 83 13 40 5 -25 7 -60 4 -77z m558 107 l91 0
-57 -24 c-31 -13 -86 -44 -122 -70 -58 -42 -67 -45 -73 -29 -3 10 -16 45 -29
77 l-24 59 62 -7 c33 -3 102 -6 152 -6z m-2703 -57 c-10 -27 -21 -56 -24 -66
-6 -17 -10 -16 -45 10 -54 42 -86 61 -139 83 l-48 19 137 0 138 1 -19 -47z
m380 -20 c0 -27 6 -66 13 -88 13 -38 13 -37 10 40 l-4 80 16 -69 c8 -38 24
-92 34 -119 17 -45 18 -53 5 -67 -8 -9 -15 -27 -15 -41 1 -23 1 -23 13 4 7 15
23 33 36 40 15 7 28 27 35 51 6 22 17 41 25 44 10 3 12 0 7 -14 -4 -10 -11
-48 -15 -85 -5 -38 -19 -84 -32 -108 -23 -40 -26 -41 -69 -39 -43 3 -46 5 -68
53 -34 71 -62 189 -61 254 l1 56 12 -63 c7 -34 19 -68 26 -75 10 -9 11 -9 6 1
-11 19 -23 162 -14 162 4 0 8 -17 9 -37 0 -21 7 -56 14 -78 l14 -40 -4 40 c-2
22 -7 64 -11 93 -4 35 -2 52 5 52 6 0 11 -20 12 -47z m2672 12 c98 -21 196
-76 265 -149 55 -60 69 -83 146 -246 81 -173 209 -251 340 -207 l46 16 0 -34
c0 -44 -44 -81 -105 -91 -138 -20 -300 91 -380 263 -77 165 -91 188 -137 234
-177 177 -477 144 -617 -68 -47 -70 -61 -132 -65 -283 -4 -153 -25 -257 -84
-403 -24 -61 -41 -91 -56 -97 -22 -8 -126 -28 -126 -24 0 1 16 33 35 71 71
140 100 257 115 459 11 159 20 196 68 289 51 96 132 174 235 225 122 60 199
71 320 45z m-3359 -10 c78 -20 153 -58 208 -105 l45 -39 -15 -70 -15 -69 -49
53 c-89 97 -203 143 -331 132 -162 -14 -294 -120 -348 -280 l-16 -48 -44 52
-43 51 34 67 c105 202 354 313 574 256z m4166 -65 c24 0 77 -45 94 -79 7 -14
16 -42 20 -62 l7 -37 -60 24 c-81 33 -136 39 -196 20 -27 -8 -50 -14 -52 -13
-1 2 2 19 7 38 17 60 104 127 148 113 8 -2 22 -4 32 -4z m-4143 -140 c37 -18
78 -49 102 -76 42 -48 81 -135 81 -181 l0 -27 -37 36 c-45 44 -79 58 -139 58
l-44 0 0 52 c0 61 -33 124 -78 151 -31 17 -31 17 -66 -13 -41 -37 -70 -105
-64 -154 l4 -36 -48 0 c-56 0 -116 -27 -147 -66 -26 -34 -26 -45 1 -79 29 -37
93 -65 149 -65 45 0 45 -1 41 -29 -6 -43 15 -98 55 -142 41 -45 50 -47 87 -18
38 30 66 91 66 142 l0 45 59 4 c64 5 116 32 146 77 16 26 16 26 11 -24 -12
-100 -84 -198 -181 -245 -37 -19 -71 -26 -132 -28 -71 -4 -88 -1 -142 23 -71
32 -142 102 -174 173 -33 71 -31 188 4 263 82 175 274 243 446 159z m3368 11
c69 -32 137 -100 168 -169 33 -71 31 -188 -4 -263 -34 -73 -96 -134 -168 -167
-44 -21 -71 -26 -131 -27 -66 0 -85 5 -142 33 -264 130 -246 506 30 607 20 7
71 14 112 14 63 1 85 -4 135 -28z m-1596 -126 c2 -114 -55 -247 -167 -386
-117 -146 -332 -319 -502 -404 -69 -35 -192 -85 -207 -85 -13 0 52 61 87 83
19 11 71 55 116 96 44 42 205 188 357 325 l277 250 -7 82 c-5 71 -3 87 13 111
l18 28 7 -25 c4 -14 7 -48 8 -75z m-415 44 c3 -17 6 -47 6 -66 0 -44 20 -82
65 -122 29 -25 45 -31 80 -31 47 0 56 -9 30 -30 -36 -30 -196 29 -253 94 -17
20 -32 41 -32 46 0 13 36 13 61 0 15 -8 19 -7 19 5 0 8 -9 15 -20 15 -11 0
-20 5 -20 10 0 6 4 10 9 10 5 0 15 23 22 50 15 58 24 63 33 19z m2833 -16
c110 -54 225 -198 274 -343 15 -45 24 -108 31 -205 5 -77 19 -183 30 -235 29
-140 30 -135 -16 -134 -52 2 -92 44 -101 108 -8 48 -23 58 -46 30 -17 -21 -63
-44 -87 -44 -11 0 -30 8 -42 18 l-22 18 42 19 c147 66 195 324 92 495 l-27 45
-6 -91 c-4 -72 -12 -104 -33 -148 -63 -129 -203 -181 -324 -119 -40 21 -82 74
-82 105 0 15 5 17 28 11 15 -5 61 -8 102 -8 129 1 203 62 203 170 0 149 -158
245 -314 190 -45 -16 -45 -16 -69 27 -6 9 -14 28 -20 43 -9 23 -6 28 23 45 48
29 62 26 76 -20 14 -47 23 -49 45 -15 46 70 146 85 243 38z m-2495 -154 c-19
-18 -356 -323 -412 -373 -67 -59 76 90 243 252 l167 164 1 67 2 66 8 -80 c6
-68 5 -82 -9 -96z m196 76 c17 -4 32 -10 32 -15 0 -4 -15 -11 -32 -14 -44 -8
-98 -42 -98 -61 0 -19 14 -19 31 1 14 17 62 44 78 44 6 0 -8 -38 -31 -84 -34
-70 -44 -82 -61 -78 -18 5 -19 2 -14 -27 6 -31 6 -32 -23 -29 -16 2 -29 -1
-29 -7 0 -5 10 -10 23 -10 26 0 49 -15 25 -16 -8 0 -41 -39 -74 -87 -168 -242
-398 -389 -684 -437 -71 -12 -73 -13 -28 -14 67 -1 189 25 273 60 171 71 339
206 450 361 43 61 64 82 77 80 16 -3 18 0 12 28 -7 32 -7 32 25 25 25 -5 31
-4 28 6 -3 8 -16 13 -32 11 -14 -1 -26 2 -26 8 0 5 5 9 12 8 6 -2 36 44 65
102 30 58 59 106 66 108 15 3 77 -34 77 -47 0 -4 -18 -11 -39 -15 -41 -6 -102
-49 -89 -61 4 -4 19 2 34 14 52 41 46 28 -69 -169 -167 -283 -410 -485 -642
-534 -40 -8 -57 -15 -40 -15 50 -1 152 27 218 60 198 100 370 272 502 502 27
47 50 85 52 83 2 -2 -21 -63 -51 -135 -103 -249 -257 -441 -416 -520 -131 -64
-229 -85 -375 -79 l-121 5 8 -61 c10 -75 8 -80 -20 -61 -17 13 -22 26 -22 64
0 26 5 52 11 58 7 7 -4 14 -36 23 -61 17 -95 45 -95 78 0 15 10 76 22 135 l21
109 38 -44 c44 -49 51 -44 14 10 -35 51 -78 202 -58 202 19 0 85 -124 108
-205 17 -57 17 -60 -1 -70 -36 -20 -134 -118 -134 -135 0 -17 18 -40 33 -40 5
0 3 7 -4 16 -12 15 -11 16 11 9 196 -62 425 -56 579 16 35 16 62 31 60 34 -3
2 -36 -7 -74 -21 -146 -53 -381 -67 -495 -31 -25 8 -37 15 -27 16 10 1 16 5
13 9 -3 5 33 23 79 41 249 97 517 314 666 539 51 78 86 168 96 249 l6 51 31
-18 c17 -10 46 -21 64 -25z m562 -87 l5 -58 -82 0 -83 0 0 33 c0 76 14 86 115
83 l40 -1 5 -57z m-1287 11 c21 -5 53 -24 72 -41 l35 -30 0 33 0 33 31 -42
c17 -24 52 -58 77 -77 48 -37 37 -46 -25 -20 -20 8 -39 13 -42 10 -8 -9 18
-23 64 -37 22 -6 42 -13 44 -15 2 -1 -86 -95 -195 -209 l-198 -206 -17 49
c-26 76 -58 135 -97 176 l-36 37 48 0 c29 0 45 4 41 10 -3 6 -23 10 -43 10
l-37 0 58 121 c32 67 60 120 61 118 2 -2 -1 -33 -6 -69 -7 -46 -7 -97 1 -175
16 -144 32 -211 26 -102 -15 240 -15 235 -4 187 6 -25 17 -78 25 -117 9 -40
19 -73 23 -73 21 0 72 201 72 286 1 64 -16 104 -44 104 -6 0 -3 -8 6 -18 23
-26 22 -104 -4 -215 -25 -104 -31 -100 -49 26 -13 95 -7 169 15 187 8 7 12 16
9 21 -12 19 34 8 53 -13 27 -30 93 -136 93 -149 0 -7 12 -8 31 -4 30 7 31 6
24 -24 -5 -25 -3 -31 10 -31 14 0 16 6 11 31 -5 28 -4 30 22 27 15 -2 28 2 29
7 1 6 -11 9 -27 7 -28 -2 -29 0 -24 28 5 24 3 30 -11 30 -13 0 -15 -6 -10 -30
4 -16 3 -30 -2 -30 -24 1 -53 14 -53 24 0 7 -16 38 -35 70 -25 42 -30 55 -16
45 11 -8 38 -27 60 -43 22 -15 46 -26 52 -24 7 2 -22 28 -65 56 -57 38 -88 52
-114 53 -30 0 -33 2 -17 9 27 12 34 12 78 -1z m-375 -56 l3 -53 -68 0 c-37 0
-73 4 -79 8 -6 4 -8 28 -6 55 l4 48 72 -3 71 -3 3 -52z m1321 -75 c24 -46 55
-98 68 -115 l24 -33 -39 0 c-68 0 -102 -11 -102 -32 0 -17 2 -18 30 -3 16 8
37 15 47 15 15 0 15 -2 -4 -15 -34 -24 -64 -101 -69 -179 -3 -49 -1 -65 5 -51
5 11 10 32 10 46 2 73 80 199 124 199 13 0 14 -6 5 -37 -15 -57 -65 -162 -95
-201 -21 -28 -23 -36 -12 -43 8 -5 18 -9 22 -9 15 0 127 -112 121 -121 -3 -5
-13 -9 -23 -9 -26 0 -71 -38 -85 -71 -11 -27 -18 -9 -103 256 l-91 285 35 107
c19 59 40 111 46 115 18 11 39 -15 86 -104z m-3451 -8 c27 -36 27 -34 0 -89
-19 -38 -23 -62 -23 -141 0 -83 4 -101 27 -145 33 -63 70 -98 131 -125 38 -17
46 -24 37 -35 -18 -22 -55 -26 -103 -11 l-45 14 -7 -36 c-9 -48 -30 -77 -70
-96 -55 -26 -65 -22 -53 22 17 56 13 218 -6 288 -21 79 -21 197 0 262 15 47
66 122 83 122 4 0 17 -13 29 -30z m5013 -31 l43 -51 -34 -67 c-105 -201 -354
-313 -573 -256 -73 19 -161 64 -211 107 -37 32 -38 34 -28 73 5 22 13 52 16
67 l6 27 46 -49 c58 -62 115 -95 196 -116 128 -33 272 4 372 96 46 42 116 164
116 201 0 11 2 19 4 19 2 0 23 -23 47 -51z m-1277 21 l69 0 -7 -100 c-11 -171
-36 -254 -107 -347 -37 -49 -75 -80 -85 -70 -3 3 -19 55 -35 116 l-30 111 25
73 c13 39 30 101 36 137 17 92 17 93 43 86 12 -3 53 -6 91 -6z m-1653 -30 l66
0 21 -79 c12 -43 22 -96 22 -117 0 -22 4 -54 10 -73 7 -25 4 -58 -12 -134 -12
-56 -24 -105 -27 -109 -4 -4 -29 3 -58 16 -101 47 -146 158 -146 358 1 69 4
131 8 138 4 6 17 9 29 6 11 -3 51 -6 87 -6z m1378 -722 c11 -37 16 -70 12 -73
-5 -2 -26 4 -47 14 -22 11 -56 22 -77 26 -45 9 -47 19 -7 37 17 7 30 17 30 22
0 5 -27 129 -61 275 -53 233 -59 270 -49 296 11 28 17 13 96 -250 46 -154 93
-310 103 -347z m-1702 520 c55 -189 155 -353 314 -511 190 -190 190 -192 166
-912 -18 -532 -25 -600 -77 -765 -57 -182 -146 -325 -251 -404 -115 -86 -232
-110 -394 -81 -104 19 -136 16 -202 -16 -76 -37 -117 -139 -93 -229 25 -95 97
-150 195 -150 70 0 100 13 204 89 102 74 164 98 289 112 63 6 436 9 1057 7
l960 -3 66 -23 c44 -15 93 -42 145 -83 127 -98 177 -117 266 -98 38 9 61 22
92 53 105 105 80 274 -51 336 -49 23 -99 24 -288 4 -122 -12 -249 40 -356 147
-142 140 -201 338 -244 803 -24 264 -36 557 -29 713 l7 143 65 40 c35 23 66
39 69 36 2 -2 -2 -24 -9 -47 -10 -33 -13 -123 -12 -354 3 -591 60 -1005 163
-1166 41 -65 114 -132 180 -165 60 -31 82 -32 336 -23 86 3 106 1 146 -17 66
-31 121 -84 155 -151 26 -51 29 -68 29 -148 0 -78 -4 -97 -28 -147 -54 -111
-169 -182 -292 -182 -88 0 -132 22 -227 111 -75 71 -122 95 -213 113 -43 8
-330 10 -1030 8 -835 -4 -978 -6 -1025 -19 -91 -26 -123 -43 -195 -108 -94
-83 -143 -106 -225 -105 -170 1 -307 134 -318 307 -6 102 22 173 97 248 80 80
147 104 256 93 44 -5 125 -9 180 -9 95 0 103 2 163 34 153 83 248 256 296 539
41 238 64 736 48 1007 -14 226 -21 242 -178 406 -133 140 -196 226 -248 341
-52 113 -73 186 -58 206 7 9 24 38 40 64 15 25 29 44 31 42 3 -2 15 -41 28
-86z m-1435 26 c26 -3 63 1 93 10 27 8 50 14 52 13 10 -11 -23 -79 -50 -105
-40 -39 -79 -51 -126 -41 -66 15 -112 67 -125 140 l-7 37 60 -24 c33 -13 79
-27 103 -30z m2962 -231 c25 -116 46 -214 46 -217 0 -3 -16 6 -36 19 -49 33
-71 31 -111 -7 -18 -18 -33 -28 -33 -22 0 5 -5 65 -10 133 l-10 125 29 45 c16
25 40 67 52 93 13 26 24 47 25 45 1 -1 23 -97 48 -214z m-1670 33 c15 -38 25
-70 24 -71 -2 -2 -67 0 -146 3 l-143 5 55 22 c30 12 83 43 118 68 35 25 64 44
65 43 1 0 13 -32 27 -70z m2624 25 c31 -22 80 -49 107 -60 l50 -20 -137 0
-137 -1 16 38 c8 20 19 47 24 60 5 12 11 22 14 22 3 0 31 -18 63 -39z m-1112
-298 c5 -60 7 -62 40 -73 19 -6 34 -15 34 -18 0 -4 -23 -26 -50 -50 -33 -29
-52 -39 -54 -30 -3 7 -10 90 -17 185 -11 163 -11 174 7 200 l19 28 8 -90 c4
-49 10 -118 13 -152z m-63 -21 c12 -168 12 -171 -8 -177 -37 -11 -255 -18
-255 -9 0 23 -57 43 -115 41 -51 -2 -72 4 -143 37 -113 54 -117 62 -26 58 173
-8 352 59 464 172 36 36 66 62 68 57 2 -5 8 -85 15 -179z m240 27 l41 -40 -30
-24 c-16 -13 -32 -24 -35 -25 -3 0 -11 19 -17 43 l-11 42 4 -54 c2 -29 8 -58
13 -65 5 -6 12 -29 16 -51 4 -22 9 -47 12 -56 3 -12 -4 -20 -25 -27 l-29 -10
-12 65 c-6 35 -8 73 -5 83 7 21 -26 60 -50 60 -20 0 -19 9 4 43 l19 29 10 -39
10 -38 1 46 c2 74 24 79 84 18z m1017 -65 c-21 -53 -5 -121 35 -154 9 -7 39
-20 66 -30 l51 -16 -27 -32 -27 -32 26 -31 c14 -17 29 -41 32 -54 7 -27 -7
-77 -22 -81 -15 -4 -157 163 -189 222 -50 95 -37 229 23 236 38 5 43 1 32 -28z
m248 -204 c2 -129 -2 -271 -7 -315 -14 -104 -59 -196 -119 -242 -73 -56 -123
-66 -354 -71 -199 -4 -207 -3 -227 17 -30 30 -27 67 9 103 26 25 36 29 63 24
30 -6 88 -57 112 -101 11 -17 12 -17 38 -1 40 27 69 81 76 142 4 39 9 51 18
46 9 -6 10 -17 4 -40 -28 -96 68 -178 162 -138 105 44 101 226 -7 312 -39 31
-110 63 -143 63 -21 1 -21 4 -16 74 7 86 -5 114 -67 171 -39 35 -131 86 -156
86 -8 0 -10 -20 -7 -64 8 -90 -20 -146 -133 -266 -48 -52 -92 -97 -96 -98 -11
-5 0 98 19 172 23 94 69 174 142 247 75 75 123 96 238 106 l72 6 -16 -44 c-37
-108 8 -231 136 -371 44 -48 88 -102 97 -120 9 -18 18 -35 20 -37 2 -2 18 6
36 17 69 43 99 152 63 223 -14 27 -14 32 0 51 15 22 20 92 9 122 -5 12 -15 15
-44 10 -78 -13 -134 53 -95 112 22 34 49 44 115 41 l55 -2 3 -235z m197 -90
c0 -297 -1 -319 -22 -385 -30 -95 -89 -184 -155 -233 -72 -53 -106 -70 -195
-93 -67 -17 -112 -19 -368 -19 l-292 0 -7 50 c-4 28 -4 55 -1 60 4 6 110 10
268 10 359 0 441 20 540 130 89 99 107 188 107 543 l0 258 63 -3 62 -3 0 -315z
m-3293 260 c22 -43 23 -128 3 -175 -8 -20 -47 -70 -87 -113 -41 -42 -84 -90
-96 -107 -19 -24 -25 -27 -32 -15 -17 27 -10 55 25 108 l36 52 -26 12 c-35 16
-31 26 17 38 80 22 127 102 108 185 -13 55 -13 57 13 53 13 -2 29 -16 39 -38z
m242 13 c94 -23 174 -69 247 -142 81 -81 99 -127 106 -266 l4 -100 -100 103
c-123 126 -156 186 -156 283 l0 66 -40 -14 c-97 -34 -172 -99 -195 -168 -11
-35 -10 -69 6 -122 5 -19 0 -23 -37 -33 -94 -25 -164 -82 -195 -156 -18 -44
-18 -128 1 -164 40 -77 175 -80 215 -5 13 24 16 63 8 109 -2 10 3 21 10 23 8
3 12 -8 12 -36 0 -22 5 -52 11 -68 10 -27 76 -103 90 -103 4 0 19 20 33 45 26
43 68 75 100 75 68 0 111 -85 66 -130 -19 -19 -33 -20 -207 -20 -222 0 -296
10 -379 50 -66 32 -101 70 -137 148 -21 44 -22 63 -25 345 l-3 297 76 0 c67 0
79 -3 100 -25 32 -31 33 -80 3 -112 -17 -18 -32 -23 -75 -23 -48 0 -55 -3 -65
-26 -10 -21 -9 -35 5 -75 16 -44 16 -51 2 -78 -20 -39 -19 -94 1 -137 18 -37
77 -94 98 -94 7 0 18 18 25 40 8 27 39 69 96 130 46 50 96 109 109 133 39 67
49 175 22 255 -7 22 -6 22 51 16 32 -3 85 -13 117 -21z m-641 -265 c4 -297 9
-335 56 -426 32 -64 86 -118 145 -147 96 -47 165 -55 494 -55 l302 0 0 -60 0
-60 -331 0 c-359 0 -419 7 -528 58 -65 31 -160 117 -194 175 -14 24 -36 72
-48 107 -21 61 -23 85 -27 372 l-4 307 43 4 c99 8 87 45 92 -275z m1549 159
c15 -5 15 -10 -8 -52 -28 -49 -23 -48 -104 -20 -31 11 -35 16 -33 43 2 17 7
42 13 56 l9 25 53 -23 c29 -12 61 -25 70 -29z m496 -85 l37 -16 -55 -13 c-30
-7 -105 -16 -166 -19 l-111 -7 -6 24 c-18 66 -15 69 81 70 48 0 107 4 132 7
39 6 45 5 48 -11 2 -10 20 -26 40 -35z m-737 -11 c110 -52 242 -89 354 -101
293 -30 276 -27 364 -71 204 -101 326 -324 292 -537 -28 -182 -123 -296 -337
-405 -159 -80 -207 -115 -244 -174 -38 -60 -47 -120 -28 -189 l15 -54 -32 0
c-44 0 -81 44 -91 105 -20 138 91 300 263 380 165 77 188 91 234 137 176 176
145 474 -65 614 -75 49 -127 62 -295 74 -162 10 -291 39 -414 90 -57 24 -78
37 -81 53 -14 66 -17 84 -22 100 -3 9 -3 17 -1 17 2 0 42 -18 88 -39z m1707
-22 c19 -27 23 -43 19 -79 -5 -40 -13 -52 -72 -109 -56 -52 -65 -65 -52 -72
70 -40 112 -103 102 -155 -7 -39 -15 -42 -32 -15 -16 26 -92 61 -132 61 -88 0
-157 -80 -149 -172 5 -47 5 -48 -23 -48 l-29 0 0 88 c0 115 20 155 146 292 97
105 154 197 154 249 0 22 1 23 23 9 12 -8 33 -30 45 -49z m-2343 19 c15 -69
70 -152 176 -263 134 -141 149 -168 149 -275 l0 -80 -43 0 -44 0 4 53 c12 154
-155 224 -275 114 -20 -18 -24 -19 -32 -7 -14 21 -12 47 4 79 15 29 73 84 98
94 8 3 -8 24 -48 61 -74 67 -101 121 -84 172 10 29 63 84 82 84 3 0 10 -15 13
-32z m626 -197 c24 -10 52 -21 62 -24 15 -6 13 -12 -19 -54 -21 -27 -52 -79
-71 -118 l-34 -70 5 49 c3 27 6 91 6 142 0 52 2 94 4 94 2 0 23 -8 47 -19z
m1085 -33 c-3 -29 -6 -96 -6 -148 l-1 -95 -24 58 c-13 32 -44 87 -69 121 l-45
64 67 25 c37 14 71 26 76 26 5 1 6 -23 2 -51z m791 -44 c58 -28 92 -73 100
-133 7 -51 -10 -81 -45 -81 -55 0 -70 50 -27 90 24 22 24 24 7 43 -25 28 -91
57 -133 57 -40 0 -65 21 -55 46 9 22 83 11 153 -22z m-2582 15 c12 -19 -26
-49 -62 -49 -43 0 -92 -21 -121 -52 l-22 -24 25 -24 c40 -37 29 -90 -19 -90
-79 0 -69 141 15 200 56 40 169 64 184 39z m950 -71 c-97 -89 -143 -203 -132
-331 14 -162 120 -294 280 -348 l48 -16 -52 -44 -51 -43 -67 34 c-283 147
-359 538 -151 782 l39 45 70 -15 69 -15 -53 -49z m410 2 c161 -77 232 -276
156 -435 -32 -69 -100 -137 -169 -168 -71 -33 -188 -31 -263 4 -121 57 -192
167 -193 299 -1 66 3 84 32 142 39 79 101 138 176 168 71 28 192 24 261 -10z
m454 -625 c24 -342 70 -567 147 -724 81 -164 222 -284 384 -326 65 -17 69 -17
295 1 56 4 77 1 104 -13 50 -26 76 -66 75 -116 -2 -87 -53 -137 -137 -137 -46
0 -95 28 -204 115 -54 43 -129 71 -227 84 -105 15 -1945 15 -2050 0 -112 -15
-180 -42 -270 -108 -103 -74 -136 -91 -181 -91 -68 0 -119 45 -125 110 -5 62
1 83 35 117 l36 36 82 -7 c218 -17 245 -18 300 -6 77 16 180 69 245 126 188
165 312 522 312 898 0 50 3 121 7 158 l6 68 21 -63 c43 -125 148 -245 272
-309 48 -25 60 -36 52 -45 -21 -26 -66 -15 -106 25 -43 43 -99 62 -179 62
l-49 0 35 -102 c28 -85 35 -124 41 -224 8 -141 26 -189 95 -253 51 -47 42 -51
-31 -17 -60 28 -91 71 -101 141 -6 46 -6 47 -37 41 -88 -18 -142 -93 -133
-182 5 -52 5 -53 -28 -73 -51 -30 -79 -92 -72 -161 3 -31 12 -71 21 -88 l16
-31 37 15 c76 32 193 55 329 64 78 5 165 15 194 21 48 10 54 10 63 -7 17 -31
87 -94 105 -94 9 0 35 18 57 40 l42 41 49 -22 c67 -30 230 -38 327 -15 118 28
263 16 369 -28 13 -6 18 0 24 29 15 82 -34 207 -96 243 -23 13 -28 24 -33 68
-9 86 -56 134 -131 134 -31 0 -36 -4 -42 -27 -28 -128 -84 -179 -206 -190 -60
-6 -152 19 -146 38 2 6 35 11 74 13 180 8 265 128 251 357 -7 110 7 189 42
238 13 18 21 35 17 38 -3 3 -36 6 -73 7 -101 0 -150 -30 -208 -129 -9 -15 -13
-12 -27 18 l-17 36 53 30 c108 61 215 193 252 310 25 79 29 65 43 -134z m-399
-267 c29 -49 26 -63 -20 -77 -47 -14 -49 -23 -15 -45 104 -68 82 -227 -48
-358 -124 -123 -251 -176 -462 -190 -77 -5 -183 -19 -235 -30 -137 -29 -134
-29 -138 10 -5 47 47 98 111 107 49 8 59 22 31 46 -21 17 -44 63 -44 87 0 11
8 30 18 42 l18 22 19 -42 c66 -147 324 -195 495 -92 l45 27 -91 6 c-110 7
-185 38 -238 100 -81 95 -69 254 24 317 41 27 75 30 65 5 -15 -38 -17 -134 -5
-179 27 -96 123 -157 209 -134 126 34 193 176 146 311 -12 34 -13 44 -3 51 12
9 90 47 96 48 1 0 11 -15 22 -32z m126 -138 c24 0 94 -71 102 -104 24 -89 -38
-173 -139 -189 l-36 -5 23 56 c39 94 40 152 7 239 -5 13 -2 15 11 10 10 -4 24
-7 32 -7z m312 -305 c15 -32 15 -51 -2 -97 l-13 -36 35 -7 c48 -9 77 -30 96
-70 26 -55 22 -65 -21 -52 -56 16 -218 12 -289 -7 -132 -35 -279 -14 -352 50
l-37 33 30 25 c37 31 38 31 94 4 38 -19 63 -23 141 -23 80 0 102 4 140 23 63
33 105 76 130 133 11 27 24 49 29 49 4 0 13 -11 19 -25z"/>
<path d="M3567 5770 c-45 -36 -70 -87 -71 -146 l0 -54 -48 0 c-27 0 -63 -6
-81 -14 -35 -14 -87 -69 -87 -91 0 -20 74 -81 115 -95 20 -7 52 -10 70 -7 l32
5 0 -52 c0 -29 6 -63 13 -76 19 -38 72 -90 91 -90 26 0 87 74 99 120 6 23 8
55 5 71 -6 28 -5 29 20 23 43 -11 115 16 157 58 l39 39 -18 32 c-27 46 -87 77
-150 77 -52 0 -52 0 -47 28 9 47 -14 113 -56 154 -44 44 -48 45 -83 18z"/>
<path d="M4152 4448 c-7 -7 -12 -33 -12 -59 0 -28 -5 -49 -12 -51 -7 -3 -9
-11 -3 -24 7 -17 8 -17 12 -1 6 23 18 21 30 -6 6 -12 23 -29 37 -37 42 -22 61
-4 61 59 0 33 5 55 14 60 7 5 10 14 6 20 -5 9 -11 7 -21 -6 -8 -11 -13 -13
-14 -5 0 20 -47 62 -68 62 -10 0 -23 -5 -30 -12z"/>
<path d="M5237 4061 c-41 -45 -61 -100 -54 -145 l5 -32 -52 0 c-29 -1 -63 -7
-77 -14 -37 -19 -89 -72 -89 -91 0 -26 74 -87 121 -99 24 -7 55 -9 71 -6 26 5
28 4 22 -20 -11 -42 16 -114 58 -156 l39 -39 32 18 c46 27 77 87 77 150 0 52
0 52 28 47 59 -12 154 34 183 88 14 26 -8 59 -61 94 -31 20 -53 27 -95 28
l-55 0 0 48 c0 27 -6 63 -14 81 -14 35 -69 87 -91 87 -7 0 -28 -17 -48 -39z"/>
<path d="M3558 2383 c-40 -43 -58 -87 -58 -140 l0 -49 -34 4 c-44 5 -98 -13
-136 -45 -52 -43 -54 -57 -18 -99 39 -45 82 -64 141 -64 l45 0 4 -60 c3 -47
10 -67 34 -96 16 -20 39 -43 51 -51 18 -12 24 -11 53 14 41 34 69 95 70 151
l0 42 42 0 c53 0 122 33 149 72 19 26 20 32 8 55 -22 41 -80 74 -143 80 l-56
6 0 41 c0 52 -29 116 -65 144 -37 29 -56 28 -87 -5z"/>
</g>
</svg>
